<svg xmlns="http://www.w3.org/2000/svg" width="44" height="44" fill="none"><rect width="44" height="44" fill="#F3F6F9" rx="22"/><path fill="#197BCD" d="M12.848 15.62h16.633v1.848h1.848V15.62a1.853 1.853 0 0 0-1.848-1.848h-.924v-.924h-1.848v.924H24.86V11h-7.393v2.772H15.62v-.924h-1.848v.924h-.924A1.853 1.853 0 0 0 11 15.62V26.71c0 1.016.832 1.848 1.848 1.848h4.62v-1.848h-4.62V15.62Zm6.469-2.772h3.696v.924h-3.697v-.924Z"/><path fill="#197BCD" d="M25.785 17.468c-4.075 0-7.392 3.318-7.392 7.393 0 4.075 3.317 7.392 7.392 7.392s7.392-3.317 7.392-7.392-3.317-7.393-7.392-7.393Zm5.461 6.469h-1.34c-.083-1.303-.342-2.468-.739-3.456a5.576 5.576 0 0 1 2.08 3.456Zm-6.385 0h-1.34c.148-1.922.712-3.327 1.34-4.048v4.048Zm0 1.848v4.047c-.628-.72-1.192-2.125-1.34-4.047h1.34Zm1.848 0h1.34c-.148 1.922-.712 3.326-1.34 4.047v-4.047Zm0-1.848v-4.048c.628.721 1.192 2.126 1.34 4.048h-1.34Zm-4.315-3.456c-.398.98-.656 2.153-.74 3.456h-1.34a5.66 5.66 0 0 1 2.08-3.456Zm-2.07 5.304h1.34c.083 1.303.342 2.467.739 3.456a5.576 5.576 0 0 1-2.08-3.456Zm8.852 3.456c.398-.98.656-2.153.74-3.456h1.34a5.66 5.66 0 0 1-2.08 3.456Z"/></svg>